<svg id="Logo_Blanc" data-name="Logo Blanc" xmlns="http://www.w3.org/2000/svg" viewBox="0 0 480.83 115.99"><defs><style>.cls-1{fill:none;stroke-width:6.01px;}.cls-1,.cls-2{stroke:#fefcf7;stroke-miterlimit:10;}.cls-2,.cls-3{fill:#fefcf7;}</style></defs><path class="cls-1" d="M139.82,72.16l0,0" transform="translate(-13.91 -8.02)"/><path class="cls-1" d="M140.16,76.4a26.19,26.19,0,1,1-.37-4.38l0,.14A27,27,0,0,1,140.16,76.4Z" transform="translate(-13.91 -8.02)"/><path class="cls-2" d="M118.35,76.4a4.38,4.38,0,1,1-8.76,0,4.38,4.38,0,0,1,8-2.5A4.3,4.3,0,0,1,118.35,76.4Z" transform="translate(-13.91 -8.02)"/><path class="cls-1" d="M105.7,101.26Q96.64,110.52,88,120.9a.29.29,0,0,1-.46,0q-8.64-10.37-17.69-19.64A26.21,26.21,0,0,0,87.79,76.4,26.2,26.2,0,0,0,105.7,101.26Z" transform="translate(-13.91 -8.02)"/><path class="cls-1" d="M35.71,72.12s0,0,0,0" transform="translate(-13.91 -8.02)"/><path class="cls-1" d="M87.79,76.43a26.22,26.22,0,0,1-17.92,24.83,26.86,26.86,0,0,1-15.7.31,25.51,25.51,0,0,1-18-18.91,27.35,27.35,0,0,1-.38-10.5l0-.14a26.19,26.19,0,0,1,52,4.41Z" transform="translate(-13.91 -8.02)"/><path class="cls-2" d="M57.22,76.4a4.38,4.38,0,1,0,8.76,0,4.2,4.2,0,0,0-.42-1.83A4.37,4.37,0,0,0,58,73.9,4.3,4.3,0,0,0,57.22,76.4Z" transform="translate(-13.91 -8.02)"/><path class="cls-1" d="M158.66,35.49a38.54,38.54,0,0,1-.69,7.22C154.91,58.54,139.79,72,139.79,72a26.18,26.18,0,0,0-52,4.38,26.19,26.19,0,0,0-52-4.38S20.66,58.54,17.6,42.71a39.4,39.4,0,0,1-.69-7.22A.6.6,0,0,1,18,35.2c3.35,6.38,11.07,9.25,12.85,9.73a.29.29,0,0,0,.33-.44C25.33,35,29,15.28,30.46,11.42a.6.6,0,0,1,1.09-.07c12.16,23,43.18,11.66,56,30.52a.29.29,0,0,0,.49,0c12.81-18.86,43.83-7.54,56-30.52a.6.6,0,0,1,1.09.07c1.44,3.86,5.13,23.54-.76,33.07a.29.29,0,0,0,.33.44c1.78-.48,9.5-3.35,12.85-9.73A.6.6,0,0,1,158.66,35.49Z" transform="translate(-13.91 -8.02)"/><path class="cls-3" d="M223.22,42.29V89.72a4.69,4.69,0,0,1-4.7,4.7h-.07a4.69,4.69,0,0,1-4.7-4.7v-19H193.22v19a4.69,4.69,0,0,1-4.7,4.7h-.08a4.69,4.69,0,0,1-4.69-4.7V42.29a4.7,4.7,0,0,1,4.69-4.7h.08a4.7,4.7,0,0,1,4.7,4.7v19h20.53v-19a4.7,4.7,0,0,1,4.7-4.7h.07A4.7,4.7,0,0,1,223.22,42.29Z" transform="translate(-13.91 -8.02)"/><path class="cls-3" d="M250.74,94.42a4.69,4.69,0,0,1-4.7-4.7V42.29a4.7,4.7,0,0,1,4.7-4.7h.07a4.7,4.7,0,0,1,4.7,4.7V89.72a4.69,4.69,0,0,1-4.7,4.7Z" transform="translate(-13.91 -8.02)"/><path class="cls-3" d="M320.36,77.89c0,9.11-7.87,16.55-17,16.55H283a4.7,4.7,0,0,1-4.7-4.7V42.3a4.69,4.69,0,0,1,4.7-4.7h15.78a16.86,16.86,0,0,1,17,15.89,16.49,16.49,0,0,1-3.12,10.38A16.56,16.56,0,0,1,320.36,77.89ZM287.78,61.28h11.45a7.11,7.11,0,0,0,0-14.21H287.78Zm23.11,16.58a7.1,7.1,0,0,0-7.1-7.1h-16V85h16A7.1,7.1,0,0,0,310.89,77.86Z" transform="translate(-13.91 -8.02)"/><path class="cls-3" d="M391.31,66A28.43,28.43,0,1,1,362.88,37.6,28.42,28.42,0,0,1,391.31,66ZM362.88,85A18.95,18.95,0,1,0,343.94,66,19,19,0,0,0,362.88,85Z" transform="translate(-13.91 -8.02)"/><path class="cls-3" d="M441.57,66A28.42,28.42,0,1,1,413.15,37.6,28.41,28.41,0,0,1,441.57,66ZM413.15,85A18.95,18.95,0,1,0,394.2,66,19,19,0,0,0,413.15,85Z" transform="translate(-13.91 -8.02)"/><path class="cls-3" d="M494.29,91.7A4.73,4.73,0,0,1,490,94.42h-.09a4.71,4.71,0,0,1-3.6-1.67L467.61,70.54V89.72a4.69,4.69,0,0,1-4.7,4.7h-.07a4.69,4.69,0,0,1-4.7-4.7V42.29a4.7,4.7,0,0,1,4.7-4.7h.07a4.7,4.7,0,0,1,4.7,4.7V61.46l18.5-22.17a4.69,4.69,0,0,1,3.6-1.69h.1a4.7,4.7,0,0,1,3.61,7.71L476.17,66l17.46,20.7A4.72,4.72,0,0,1,494.29,91.7Z" transform="translate(-13.91 -8.02)"/><circle class="cls-3" cx="349.26" cy="57.92" r="4.5"/><circle class="cls-3" cx="399.11" cy="57.92" r="4.5"/></svg>