<svg xmlns="http://www.w3.org/2000/svg" viewBox="0 0 378 300"><defs><style>.cls-1{fill:none;stroke:#2808a4;stroke-linecap:round;stroke-miterlimit:10;stroke-width:15.03px;}.cls-2{fill:#2808a4;}</style></defs><g id="echange"><line class="cls-1" x1="54.06" y1="21.11" x2="242.77" y2="21.11"/><path class="cls-1" d="M17.36,57.81a36.7,36.7,0,0,1,36.7-36.7"/><path class="cls-1" d="M54.06,281.11a36.7,36.7,0,1,1,0-73.39"/><line class="cls-1" x1="17.36" y1="57.81" x2="17.36" y2="246.52"/><line class="cls-1" x1="54.06" y1="21.11" x2="54.06" y2="207.72"/><line class="cls-1" x1="54.06" y1="244.42" x2="242.77" y2="244.42"/><line class="cls-1" x1="54.06" y1="281.11" x2="242.77" y2="281.11"/><line class="cls-1" x1="242.77" y1="173.12" x2="242.77" y2="281.11"/><line class="cls-1" x1="242.77" y1="21.11" x2="242.77" y2="62.83"/><line class="cls-1" x1="54.06" y1="207.72" x2="242.77" y2="207.72"/><path class="cls-2" d="M339.53,60.26l21.25,21.25a7.55,7.55,0,0,1,2.2,5.34v0a7.51,7.51,0,0,1-2.2,5.34l-21.25,21.25a7.51,7.51,0,0,1-10.63-10.62l8.52-8.52H130a7.47,7.47,0,1,1,0-14.93h207.4l-8.52-8.52a7.52,7.52,0,0,1,10.63-10.63Z"/><path class="cls-2" d="M146,122.39l-21.25,21.25a7.55,7.55,0,0,0-2.2,5.34V149a7.51,7.51,0,0,0,2.2,5.33L146,175.61A7.51,7.51,0,0,0,156.63,165l-8.52-8.52h207.4a7.47,7.47,0,1,0,0-14.93H148.11l8.52-8.52A7.52,7.52,0,0,0,146,122.39Z"/></g></svg>