<svg xmlns="http://www.w3.org/2000/svg" viewBox="0 0 300 300"><defs><style>.cls-1,.cls-2{fill:none;stroke:#2808a4;stroke-miterlimit:10;stroke-width:14.44px;}.cls-1{stroke-linecap:round;}</style></defs><g id="GPS"><path class="cls-1" d="M212.63,199.22c12.37,8.67,19.85,19.93,19.85,32.24,0,27.4-37,49.61-82.68,49.61s-82.68-22.21-82.68-49.61c0-12,7.09-23,18.88-31.55"/><path class="cls-2" d="M202.6,42.86h0a74.85,74.85,0,0,0-105.6,0h0a74.21,74.21,0,0,0-9,94.44l61,89.45a.91.91,0,0,0,1.5,0l61-89.45A74.21,74.21,0,0,0,202.6,42.86ZM149.35,129a36.26,36.26,0,1,1,36.38-36.26A36.32,36.32,0,0,1,149.35,129Z"/></g></svg>