<svg xmlns="http://www.w3.org/2000/svg" viewBox="0 0 300 300"><defs><style>.cls-1,.cls-2{fill:none;stroke:#2808a4;stroke-miterlimit:10;}.cls-1{stroke-width:13.19px;}.cls-2{stroke-width:6.6px;}</style></defs><g id="Stock"><path class="cls-1" d="M16.9,81.2h58a4,4,0,0,1,4,4V272.49a0,0,0,0,1,0,0h-62a4,4,0,0,1-4-4V85.2A4,4,0,0,1,16.9,81.2Z"/><rect class="cls-2" x="32.69" y="123.41" width="27.48" height="46.17" rx="4"/><line class="cls-2" x1="12.9" y1="250.06" x2="78.86" y2="250.06"/><line class="cls-2" x1="12.9" y1="102.3" x2="78.86" y2="102.3"/><path class="cls-1" d="M82.86,24.47h51.37a4,4,0,0,1,4,4v240a4,4,0,0,1-4,4H78.86a0,0,0,0,1,0,0v-244A4,4,0,0,1,82.86,24.47Z"/><line class="cls-2" x1="78.86" y1="69.32" x2="138.23" y2="69.32"/><line class="cls-2" x1="78.86" y1="234.23" x2="138.23" y2="234.23"/><path class="cls-1" d="M142.23,54.81h31.58a4,4,0,0,1,4,4V268.49a4,4,0,0,1-4,4H138.23a0,0,0,0,1,0,0V58.81A4,4,0,0,1,142.23,54.81Z"/><line class="cls-2" x1="138.23" y1="81.2" x2="177.81" y2="81.2"/><line class="cls-2" x1="138.23" y1="248.74" x2="177.81" y2="248.74"/><rect class="cls-1" x="199.83" y="79.95" width="65.96" height="191.29" rx="4" transform="translate(-35.57 61.54) rotate(-14)"/><line class="cls-2" x1="182.53" y1="112.13" x2="246.54" y2="96.17"/><line class="cls-2" x1="185.73" y1="124.93" x2="249.73" y2="108.97"/><line class="cls-2" x1="215.73" y1="242.54" x2="279.73" y2="226.58"/><line class="cls-2" x1="218.92" y1="255.34" x2="282.92" y2="239.38"/></g></svg>