<svg id="Calque_2" data-name="Calque 2" xmlns="http://www.w3.org/2000/svg" viewBox="0 0 100 100"><defs><style>.cls-1{fill:#f3f3f3;}</style></defs><rect class="cls-1" x="20" y="78" width="12" height="4"/><rect class="cls-1" x="18" y="82" width="11" height="3"/><rect class="cls-1" x="12" y="81" width="8" height="3"/><rect class="cls-1" x="8" y="79" width="8" height="3"/><rect class="cls-1" x="5" y="76" width="8" height="4"/><rect class="cls-1" x="4" y="73" width="2" height="5"/><rect class="cls-1" x="1" y="67" width="3" height="10"/><rect class="cls-1" x="3" y="70" width="14" height="6"/><rect class="cls-1" x="13" y="73" width="7" height="9"/><rect class="cls-1" x="19" y="75" width="6" height="4"/><rect class="cls-1" x="25" y="76" width="3" height="2"/><rect class="cls-1" x="28" y="77" width="2" height="1"/><rect class="cls-1" x="20" y="73" width="3" height="2"/><rect class="cls-1" x="17" y="71" width="2" height="2"/><rect class="cls-1" x="19" y="72" width="1" height="1"/><rect class="cls-1" x="17" y="70" width="1" height="1"/><rect class="cls-1" x="4" y="52" width="14" height="18"/><rect class="cls-1" x="2" y="54" width="2" height="13"/><rect class="cls-1" x="5" y="46" width="3" height="6"/><rect class="cls-1" x="6" y="43" width="1" height="3"/><rect class="cls-1" x="7" y="39" width="1" height="4"/><rect class="cls-1" x="8" y="36" width="2" height="4"/><rect class="cls-1" x="10" y="34" width="1" height="4"/><rect class="cls-1" x="11" y="31" width="1" height="4"/><rect class="cls-1" x="9" y="35" width="1" height="1"/><rect class="cls-1" x="10" y="33" width="1" height="1"/><rect class="cls-1" x="12" y="30" width="4" height="1"/><rect class="cls-1" x="12" y="29" width="5" height="1"/><rect class="cls-1" x="13" y="28" width="5" height="1"/><rect class="cls-1" x="14" y="27" width="6" height="1"/><rect class="cls-1" x="15" y="26" width="6" height="1"/><rect class="cls-1" x="16" y="25" width="6" height="1"/><rect class="cls-1" x="18" y="24" width="7" height="1"/><rect class="cls-1" x="20" y="23" width="7" height="1"/><rect class="cls-1" x="22" y="22" width="7" height="1"/><rect class="cls-1" x="24" y="21" width="7" height="1"/><rect class="cls-1" x="27" y="20" width="7" height="1"/><rect class="cls-1" x="30" y="19" width="7" height="1"/><rect class="cls-1" x="29" y="22" width="1" height="1"/><rect class="cls-1" x="31" y="21" width="1" height="1"/><rect class="cls-1" x="34" y="20" width="1" height="1"/><rect class="cls-1" x="7" y="43" width="11" height="11"/><rect class="cls-1" x="7" y="40" width="12" height="3"/><rect class="cls-1" x="10" y="37" width="9" height="3"/><rect class="cls-1" x="12" y="30" width="8" height="9"/><rect class="cls-1" x="11" y="35" width="2" height="3"/><rect class="cls-1" x="17" y="29" width="3" height="1"/><rect class="cls-1" x="19" y="29" width="3" height="1"/><rect class="cls-1" x="21" y="28" width="3" height="1"/><rect class="cls-1" x="22" y="27" width="3" height="1"/><rect class="cls-1" x="24" y="26" width="3" height="1"/><rect class="cls-1" x="27" y="25" width="5" height="1"/><rect class="cls-1" x="31" y="24" width="5" height="1"/><rect class="cls-1" x="35" y="23" width="5" height="1"/><rect class="cls-1" x="40" y="22" width="5" height="1"/><rect class="cls-1" x="45" y="22" width="5" height="1"/><rect class="cls-1" x="20" y="30" width="30" height="9"/><rect class="cls-1" x="22" y="29" width="26" height="2"/><rect class="cls-1" x="40" y="23" width="10" height="11"/><rect class="cls-1" x="24" y="28" width="17" height="2"/><rect class="cls-1" x="25" y="27" width="18" height="1"/><rect class="cls-1" x="35" y="24" width="5" height="3"/><rect class="cls-1" x="26" y="26" width="9" height="1"/><rect class="cls-1" x="32" y="25" width="4" height="1"/><rect class="cls-1" x="49" y="38" width="1" height="40"/><rect class="cls-1" x="17" y="67" width="33" height="3"/><rect class="cls-1" x="20" y="70" width="4" height="1"/><rect class="cls-1" x="21" y="71" width="4" height="1"/><rect class="cls-1" x="24" y="72" width="4" height="1"/><rect class="cls-1" x="27" y="73" width="4" height="1"/><rect class="cls-1" x="29" y="74" width="4" height="1"/><rect class="cls-1" x="32" y="75" width="4" height="1"/><rect class="cls-1" x="35" y="76" width="6" height="1"/><rect class="cls-1" x="40" y="77" width="6" height="1"/><rect class="cls-1" x="45" y="78" width="5" height="1"/><rect class="cls-1" x="24" y="70" width="26" height="2"/><rect class="cls-1" x="28" y="72" width="21" height="2"/><rect class="cls-1" x="32" y="73" width="17" height="3"/><rect class="cls-1" x="41" y="76" width="8" height="2"/><rect class="cls-1" x="16" y="38" width="33" height="10"/><rect class="cls-1" x="43" y="36" width="6" height="33"/><rect class="cls-1" x="15" y="65" width="29" height="3"/><rect class="cls-1" x="12" y="47" width="14" height="21"/><rect class="cls-1" x="26" y="48" width="1" height="6"/><rect class="cls-1" x="27" y="48" width="1" height="4"/><rect class="cls-1" x="28" y="48" width="1" height="3"/><rect class="cls-1" x="29" y="48" width="1" height="2"/><rect class="cls-1" x="30" y="48" width="1" height="1"/><rect class="cls-1" x="31" y="47" height="1"/><rect class="cls-1" x="42" y="48" width="1" height="6" transform="translate(85 102) rotate(180)"/><rect class="cls-1" x="41" y="48" width="1" height="4" transform="translate(83 100) rotate(180)"/><rect class="cls-1" x="40" y="48" width="1" height="3" transform="translate(81 99) rotate(180)"/><rect class="cls-1" x="39" y="48" width="1" height="2" transform="translate(79 98) rotate(180)"/><rect class="cls-1" x="38" y="48" width="1" height="1" transform="translate(77 97) rotate(180)"/><rect class="cls-1" x="38" y="47" height="1" transform="translate(76 95) rotate(180)"/><rect class="cls-1" x="42" y="59" width="1" height="6.86" transform="translate(85 124.86) rotate(180)"/><rect class="cls-1" x="41" y="61.29" width="1" height="4.57" transform="translate(83 127.14) rotate(180)"/><rect class="cls-1" x="40" y="62.43" width="1" height="3.43" transform="translate(81 128.29) rotate(180)"/><rect class="cls-1" x="39" y="63.57" width="1" height="2.29" transform="translate(79 129.43) rotate(180)"/><rect class="cls-1" x="38" y="64.71" width="1" height="1.14" transform="translate(77 130.57) rotate(180)"/><rect class="cls-1" x="26" y="59" width="1" height="6.86"/><rect class="cls-1" x="27" y="61.29" width="1" height="4.57"/><rect class="cls-1" x="28" y="62.43" width="1" height="3.43"/><rect class="cls-1" x="29" y="63.57" width="1" height="2.29"/><rect class="cls-1" x="30" y="64.71" width="1" height="1.14"/><rect class="cls-1" x="38" y="65.86" height="1.14" transform="translate(76 132.86) rotate(180)"/><rect class="cls-1" x="68" y="78" width="12" height="4" transform="translate(148 160) rotate(-180)"/><rect class="cls-1" x="71" y="82" width="11" height="3" transform="translate(153 167) rotate(-180)"/><rect class="cls-1" x="80" y="81" width="8" height="3" transform="translate(168 165) rotate(-180)"/><rect class="cls-1" x="84" y="79" width="8" height="3" transform="translate(176 161) rotate(-180)"/><rect class="cls-1" x="87" y="76" width="8" height="4" transform="translate(182 156) rotate(-180)"/><rect class="cls-1" x="94" y="73" width="2" height="5" transform="translate(190 151) rotate(-180)"/><rect class="cls-1" x="96" y="67" width="3" height="10" transform="translate(195 144) rotate(-180)"/><rect class="cls-1" x="83" y="70" width="14" height="6" transform="translate(180 146) rotate(-180)"/><rect class="cls-1" x="80" y="73" width="7" height="9" transform="translate(167 155) rotate(-180)"/><rect class="cls-1" x="75" y="75" width="6" height="4" transform="translate(156 154) rotate(-180)"/><rect class="cls-1" x="72" y="76" width="3" height="2" transform="translate(147 154) rotate(-180)"/><rect class="cls-1" x="70" y="77" width="2" height="1" transform="translate(142 155) rotate(-180)"/><rect class="cls-1" x="77" y="73" width="3" height="2" transform="translate(157 148) rotate(-180)"/><rect class="cls-1" x="81" y="71" width="2" height="2" transform="translate(164 144) rotate(-180)"/><rect class="cls-1" x="80" y="72" width="1" height="1" transform="translate(161 145) rotate(-180)"/><rect class="cls-1" x="82" y="70" width="1" height="1" transform="translate(165 141) rotate(-180)"/><rect class="cls-1" x="82" y="52" width="14" height="18" transform="translate(178 122) rotate(-180)"/><rect class="cls-1" x="96" y="54" width="2" height="13" transform="translate(194 121) rotate(-180)"/><rect class="cls-1" x="92" y="46" width="3" height="6" transform="translate(187 98) rotate(-180)"/><rect class="cls-1" x="93" y="43" width="1" height="3" transform="translate(187 89) rotate(-180)"/><rect class="cls-1" x="92" y="39" width="1" height="4" transform="translate(185 82) rotate(-180)"/><rect class="cls-1" x="90" y="36" width="2" height="4" transform="translate(182 76) rotate(-180)"/><rect class="cls-1" x="89" y="34" width="1" height="4" transform="translate(179 72) rotate(-180)"/><rect class="cls-1" x="88" y="31" width="1" height="4" transform="translate(177 66) rotate(-180)"/><rect class="cls-1" x="90" y="35" width="1" height="1" transform="translate(181 71) rotate(-180)"/><rect class="cls-1" x="89" y="33" width="1" height="1" transform="translate(179 67) rotate(-180)"/><rect class="cls-1" x="84" y="30" width="4" height="1" transform="translate(172 61) rotate(-180)"/><rect class="cls-1" x="83" y="29" width="5" height="1" transform="translate(171 59) rotate(-180)"/><rect class="cls-1" x="82" y="28" width="5" height="1" transform="translate(169 57) rotate(-180)"/><rect class="cls-1" x="80" y="27" width="6" height="1" transform="translate(166 55) rotate(-180)"/><rect class="cls-1" x="79" y="26" width="6" height="1" transform="translate(164 53) rotate(-180)"/><rect class="cls-1" x="78" y="25" width="6" height="1" transform="translate(162 51) rotate(-180)"/><rect class="cls-1" x="75" y="24" width="7" height="1" transform="translate(157 49) rotate(-180)"/><rect class="cls-1" x="73" y="23" width="7" height="1" transform="translate(153 47) rotate(-180)"/><rect class="cls-1" x="71" y="22" width="7" height="1" transform="translate(149 45) rotate(-180)"/><rect class="cls-1" x="69" y="21" width="7" height="1" transform="translate(145 43) rotate(-180)"/><rect class="cls-1" x="66" y="20" width="7" height="1" transform="translate(139 41) rotate(-180)"/><rect class="cls-1" x="63" y="19" width="7" height="1" transform="translate(133 39) rotate(-180)"/><rect class="cls-1" x="70" y="22" width="1" height="1" transform="translate(141 45) rotate(-180)"/><rect class="cls-1" x="68" y="21" width="1" height="1" transform="translate(137 43) rotate(-180)"/><rect class="cls-1" x="65" y="20" width="1" height="1" transform="translate(131 41) rotate(-180)"/><rect class="cls-1" x="82" y="43" width="11" height="11" transform="translate(175 97) rotate(-180)"/><rect class="cls-1" x="81" y="40" width="12" height="3" transform="translate(174 83) rotate(-180)"/><rect class="cls-1" x="81" y="37" width="9" height="3" transform="translate(171 77) rotate(-180)"/><rect class="cls-1" x="80" y="30" width="8" height="9" transform="translate(168 69) rotate(-180)"/><rect class="cls-1" x="87" y="35" width="2" height="3" transform="translate(176 73) rotate(-180)"/><rect class="cls-1" x="80" y="29" width="3" height="1" transform="translate(163 59) rotate(-180)"/><rect class="cls-1" x="78" y="29" width="3" height="1" transform="translate(159 59) rotate(-180)"/><rect class="cls-1" x="76" y="28" width="3" height="1" transform="translate(155 57) rotate(-180)"/><rect class="cls-1" x="75" y="27" width="3" height="1" transform="translate(153 55) rotate(-180)"/><rect class="cls-1" x="73" y="26" width="3" height="1" transform="translate(149 53) rotate(-180)"/><rect class="cls-1" x="68" y="25" width="5" height="1" transform="translate(141 51) rotate(-180)"/><rect class="cls-1" x="64" y="24" width="5" height="1" transform="translate(133 49) rotate(-180)"/><rect class="cls-1" x="60" y="23" width="5" height="1" transform="translate(125 47) rotate(-180)"/><rect class="cls-1" x="55" y="22" width="5" height="1" transform="translate(115 45) rotate(-180)"/><rect class="cls-1" x="50" y="22" width="5" height="1" transform="translate(105 45) rotate(-180)"/><rect class="cls-1" x="50" y="30" width="30" height="9" transform="translate(130 69) rotate(-180)"/><rect class="cls-1" x="52" y="29" width="26" height="2" transform="translate(130 60) rotate(-180)"/><rect class="cls-1" x="50" y="23" width="10" height="11" transform="translate(110 57) rotate(-180)"/><rect class="cls-1" x="59" y="28" width="17" height="2" transform="translate(135 58) rotate(-180)"/><rect class="cls-1" x="57" y="27" width="18" height="1" transform="translate(132 55) rotate(-180)"/><rect class="cls-1" x="60" y="24" width="5" height="3" transform="translate(125 51) rotate(-180)"/><rect class="cls-1" x="65" y="26" width="9" height="1" transform="translate(139 53) rotate(-180)"/><rect class="cls-1" x="64" y="25" width="4" height="1" transform="translate(132 51) rotate(-180)"/><rect class="cls-1" x="50" y="38" width="1" height="40" transform="translate(101 116) rotate(-180)"/><rect class="cls-1" x="50" y="67" width="33" height="3" transform="translate(133 137) rotate(-180)"/><rect class="cls-1" x="76" y="70" width="4" height="1" transform="translate(156 141) rotate(-180)"/><rect class="cls-1" x="75" y="71" width="4" height="1" transform="translate(154 143) rotate(-180)"/><rect class="cls-1" x="72" y="72" width="4" height="1" transform="translate(148 145) rotate(-180)"/><rect class="cls-1" x="69" y="73" width="4" height="1" transform="translate(142 147) rotate(-180)"/><rect class="cls-1" x="67" y="74" width="4" height="1" transform="translate(138 149) rotate(-180)"/><rect class="cls-1" x="64" y="75" width="4" height="1" transform="translate(132 151) rotate(-180)"/><rect class="cls-1" x="59" y="76" width="6" height="1" transform="translate(124 153) rotate(-180)"/><rect class="cls-1" x="54" y="77" width="6" height="1" transform="translate(114 155) rotate(-180)"/><rect class="cls-1" x="50" y="78" width="5" height="1" transform="translate(105 157) rotate(-180)"/><rect class="cls-1" x="50" y="70" width="26" height="2" transform="translate(126 142) rotate(-180)"/><rect class="cls-1" x="51" y="72" width="21" height="2" transform="translate(123 146) rotate(-180)"/><rect class="cls-1" x="51" y="73" width="17" height="3" transform="translate(119 149) rotate(-180)"/><rect class="cls-1" x="51" y="76" width="8" height="2" transform="translate(110 154) rotate(-180)"/><rect class="cls-1" x="51" y="38" width="33" height="10" transform="translate(135 86) rotate(-180)"/><rect class="cls-1" x="51" y="36" width="6" height="33" transform="translate(108 105) rotate(-180)"/><rect class="cls-1" x="56" y="65" width="29" height="3" transform="translate(141 133) rotate(-180)"/><rect class="cls-1" x="74" y="47" width="14" height="21" transform="translate(162 115) rotate(-180)"/><rect class="cls-1" x="73" y="48" width="1" height="6" transform="translate(147 102) rotate(-180)"/><rect class="cls-1" x="72" y="48" width="1" height="4" transform="translate(145 100) rotate(-180)"/><rect class="cls-1" x="71" y="48" width="1" height="3" transform="translate(143 99) rotate(-180)"/><rect class="cls-1" x="70" y="48" width="1" height="2" transform="translate(141 98) rotate(-180)"/><rect class="cls-1" x="69" y="48" width="1" height="1" transform="translate(139 97) rotate(-180)"/><rect class="cls-1" x="69" y="47" height="1" transform="translate(138 95) rotate(180)"/><rect class="cls-1" x="57" y="48" width="1" height="6"/><rect class="cls-1" x="58" y="48" width="1" height="4"/><rect class="cls-1" x="59" y="48" width="1" height="3"/><rect class="cls-1" x="60" y="48" width="1" height="2"/><rect class="cls-1" x="61" y="48" width="1" height="1"/><rect class="cls-1" x="62" y="47" height="1"/><rect class="cls-1" x="57" y="59" width="1" height="6.86"/><rect class="cls-1" x="58" y="61.29" width="1" height="4.57"/><rect class="cls-1" x="59" y="62.43" width="1" height="3.43"/><rect class="cls-1" x="60" y="63.57" width="1" height="2.29"/><rect class="cls-1" x="61" y="64.71" width="1" height="1.14"/><rect class="cls-1" x="73" y="59" width="1" height="6.86" transform="translate(147 124.86) rotate(-180)"/><rect class="cls-1" x="72" y="61.29" width="1" height="4.57" transform="translate(145 127.14) rotate(-180)"/><rect class="cls-1" x="71" y="62.43" width="1" height="3.43" transform="translate(143 128.29) rotate(-180)"/><rect class="cls-1" x="70" y="63.57" width="1" height="2.29" transform="translate(141 129.43) rotate(-180)"/><rect class="cls-1" x="69" y="64.71" width="1" height="1.14" transform="translate(139 130.57) rotate(-180)"/><rect class="cls-1" x="62" y="65.86" height="1.14"/></svg>